<?xml version="1.0" encoding="UTF-8"?><svg id="Layer_1" xmlns="http://www.w3.org/2000/svg" viewBox="0 0 104.82 64.55"><defs><style>.cls-1{fill:#e02d2a;}</style></defs><path class="cls-1" d="M53.7,63.66v-.02c-35.43,.76-43.12-48.97-8.27-58.95,8.13-2.47,24.34-3.75,50.95-3.8,3.85,0,6.98,3.13,6.99,7,0,3.88-3.1,7.02-6.95,7.03-32.52,.06-43.07,2.03-46.96,3.21-17.78,4.74-16.56,28.68,.98,31.39,0,0,0,0,0,0,16.68,1.83,24.47-19.03,10.3-29.28,4.61-.49,11.79-.89,17.37-1.06,2.09,3.6,3.45,7.63,3.9,11.78,1.97,16.68-11.67,32.27-28.31,32.71ZM41.11,1.91C32.67,1.26,21.88,.92,8.43,.89c-3.85,0-6.98,3.13-6.99,7,0,3.88,3.1,7.02,6.95,7.03,6,.01,11.25,.09,15.86,.21,3.9-6.01,9.65-10.52,16.85-13.23Z"/></svg>