<svg width="100" height="100" viewBox="0 0 100 100" fill="none" xmlns="http://www.w3.org/2000/svg">
<rect width="100" height="100" fill="white"/>
<path opacity="0.2" d="M50 89.5C71.8152 89.5 89.5 71.8152 89.5 50C89.5 28.1848 71.8152 10.5 50 10.5C28.1848 10.5 10.5 28.1848 10.5 50C10.5 71.8152 28.1848 89.5 50 89.5Z" fill="#EFB1B3"/>
<path d="M70.6 41.2H29.4C28.3 41.2 27.4 42.1 27.4 43.2V65.2C27.4 66.3 28.3 67.2 29.4 67.2H70.6C71.7 67.2 72.6 66.3 72.6 65.2V43.2C72.6 42.1 71.7 41.3 70.6 41.2ZM29.8 43.7H32.2C32.2 44.8 31.3 45.7 30.2 45.7H29.8V43.7ZM29.8 64.9V62.9H30.2C31.3 62.9 32.2 63.8 32.2 64.9H29.8ZM70.2 64.9H67.8C67.8 63.8 68.7 62.9 69.8 62.9H70.2V64.9ZM70.2 60.4H69.8C67.4 60.4 65.4 62.4 65.4 64.9H34.5C34.5 62.5 32.5 60.4 30.1 60.4H29.8V48.2H30.2C32.6 48.2 34.6 46.2 34.6 43.7H65.9C65.9 46.1 67.9 48.2 70.3 48.2L70.2 60.4ZM70.2 45.7C69.1 45.7 68.2 44.8 68.2 43.7H70.2V45.7Z" fill="#D42C33"/>
<path d="M33 36.8H67C67.7001 36.8 68.2001 37.3 68.2001 38C68.2001 38.7 67.7001 39.2 67 39.2H33C32.3 39.2 31.8 38.7 31.8 38C31.8 37.3 32.3 36.8 33 36.8Z" fill="#D42C33"/>
<path d="M37.7 32.7H62.2C62.9 32.7 63.4 33.2 63.4 33.9C63.4 34.6 62.9 35.1 62.2 35.1H37.7C37 35.1 36.5 34.6 36.5 33.9C36.5 33.3 37.1 32.7 37.7 32.7Z" fill="#D42C33"/>
<path d="M50 62.7C54.6392 62.7 58.4 58.9392 58.4 54.3C58.4 49.6608 54.6392 45.9 50 45.9C45.3608 45.9 41.6 49.6608 41.6 54.3C41.6 58.9392 45.3608 62.7 50 62.7Z" fill="#E89093"/>
<path d="M50 56.9L47.1 58.4L47.6 55.2L45.3 52.9L48.5 52.4L50 49.5L51.5 52.4L54.7001 52.9L52.4 55.2L52.9 58.4L50 56.9Z" fill="white"/>
<path d="M35.7 50.3C36.5837 50.3 37.3 49.5837 37.3 48.7C37.3 47.8163 36.5837 47.1 35.7 47.1C34.8164 47.1 34.1 47.8163 34.1 48.7C34.1 49.5837 34.8164 50.3 35.7 50.3Z" fill="#D42C33"/>
<path d="M64.3 61.7C65.1837 61.7 65.9 60.9837 65.9 60.1C65.9 59.2163 65.1837 58.5 64.3 58.5C63.4164 58.5 62.7 59.2163 62.7 60.1C62.7 60.9837 63.4164 61.7 64.3 61.7Z" fill="#D42C33"/>
<path opacity="0.6" d="M25.3 26C27.7853 26 29.8 23.9853 29.8 21.5C29.8 19.0147 27.7853 17 25.3 17C22.8147 17 20.8 19.0147 20.8 21.5C20.8 23.9853 22.8147 26 25.3 26Z" fill="white" stroke="#EFB1B3" stroke-width="2"/>
<path opacity="0.6" d="M18.3 17C19.6807 17 20.8 15.8807 20.8 14.5C20.8 13.1193 19.6807 12 18.3 12C16.9193 12 15.8 13.1193 15.8 14.5C15.8 15.8807 16.9193 17 18.3 17Z" fill="#EFB1B3"/>
<path opacity="0.6" d="M61.3 14.5H67.3M64.3 12V17.5V12Z" stroke="#EFB1B3" stroke-width="2" stroke-linecap="round" stroke-linejoin="round"/>
</svg>
