<svg width="23" height="8" viewBox="0 0 23 8" xmlns="http://www.w3.org/2000/svg"><g id="Page-1" stroke="none" stroke-width="1" fill="none" fill-rule="evenodd"><g id="Desktop-Video-Playing" transform="translate(-753 -902)"><g id="Zigwheels" transform="translate(753 902)"><path d="M17.601.629l.032-.097.887-.028c.04 0 .105-.014.193-.043l.492-.153a.904.904 0 0 1 .265-.056l2.685-.07-.556.824-2.207-.098a1.6 1.6 0 0 1-.566-.125c-.216-.094-.4-.14-.554-.14l-.67-.014" id="Fill-52" fill="#1A1919"/><path d="M12.878.595l.044-.105.486-.015h.304c.13 0 .275-.025.435-.077.311-.102.531-.152.661-.152l2.504-.064-.142.824-2.524-.103A1.427 1.427 0 0 1 14.239.8a20.124 20.124 0 0 0-.471-.177l-.89-.027" id="Fill-53" fill="#1A1919"/><path d="M12.51 7.5l.043-.084.694-.014c.171 0 .307-.019.41-.056.312-.103.506-.163.582-.18.077-.02.211-.03.406-.03l2.858-.056-.545.825-2.67-.112a1.752 1.752 0 0 1-.481-.132c-.198-.08-.338-.12-.42-.12L12.51 7.5" id="Fill-54" fill="#1A1919"/><path d="M8.538 1.425l.044-.112h.559c.227 0 .397-.018.508-.058l.467-.162c.073-.02.165-.035.278-.045l2.054-.042-.056.335.874-.011c.058 0 .115-.01.17-.026l.396-.116c.168-.052.296-.077.385-.077l2.943-.063-.07.321.476.015c.064 0 .157-.005.279-.015l.278-.028.455-.153a.978.978 0 0 1 .325-.07l2.662-.07-.544.824-2.269-.111c-.05 0-.267-.075-.656-.224l-.111-.028h-.036l-.878-.028-.054.391-2.316-.089c-.496-.02-.803-.055-.918-.104l-.373-.165a.848.848 0 0 0-.356-.061l-.682-.014-.067.363-2.074-.097a5.912 5.912 0 0 0-.78-.252l-.913-.028" id="Fill-55" fill="#1A1919"/><path d="M8.421 2.277l.057-.098h.56l.132-.014.218-.014a.32.32 0 0 0 .168-.042l.396-.125c.064-.02.152-.042.264-.07l2.08-.042-.058.321h.317c.153 0 .287-.02.398-.063l.454-.17c.08-.03.18-.046.302-.046h3.298l-.081.335.232-.014.327-.014c.072-.028.247-.088.526-.182a.85.85 0 0 1 .314-.055l2.661-.07-.545.81-1.536-.07a9.477 9.477 0 0 1-.979-.097l-.445-.168a.314.314 0 0 0-.123-.015l-.292-.013h-.147l-.079.363-2.987-.117c-.292-.009-.464-.022-.514-.041l-.495-.188a.7.7 0 0 0-.247-.06h-.39l-.067.35-2.038-.111c-.09-.01-.22-.051-.39-.127-.17-.073-.298-.112-.388-.112l-.903-.04" id="Fill-56" fill="#1A1919"/><path d="M8.28 3.134l.045-.089.535-.014c.3-.01.468-.025.508-.045l.527-.176c.056-.018.189-.035.4-.044l1.848-.042-.058.321c.098 0 .202-.016.314-.05.343-.11.6-.166.77-.166l3.673-.063-.057.32c.145-.009.278-.037.397-.083.286-.112.495-.167.624-.167l2.601-.07-.544.81-2.11-.084a1.562 1.562 0 0 1-.51-.126 1.906 1.906 0 0 0-.49-.14l-.055.35-3.411-.103c-.285-.009-.473-.033-.564-.072l-.447-.188-.22-.028-.066.39-1.722-.102a2.589 2.589 0 0 1-.874-.236 6.515 6.515 0 0 1-.224-.074l-.89-.03" id="Fill-57" fill="#1A1919"/><path d="M8.153 4.002l.032-.087.85-.014a.634.634 0 0 0 .206-.042c.406-.151.711-.227.914-.227l1.822-.056-.036.252c.08-.013.133-.03.155-.05l.24-.08a.786.786 0 0 1 .288-.066l1.97-.056-.17.266a.78.78 0 0 0 .12-.038l.24-.06c.08-.017.17-.03.266-.039l1.64-.073-.039.223c.215-.112.406-.168.576-.168l2.602-.055-.557.81-2.158-.099a1.64 1.64 0 0 1-.407-.097.27.27 0 0 1-.124-.042l-.058.279-1.37-.116a2.438 2.438 0 0 1-.763-.174.448.448 0 0 0-.15-.058l-.191.306-1.465-.107c-.18-.012-.413-.077-.703-.2l-.046.307-1.795-.128a2.024 2.024 0 0 1-.591-.128 5.425 5.425 0 0 0-.457-.155l-.84-.028" id="Fill-58" fill="#1A1919"/><path d="M8.024 4.854l.031-.1.888-.014c.058 0 .205-.042.444-.129.24-.085.416-.128.529-.128l4.124-.042-.191.336c.09 0 .293-.051.613-.154.167-.056.304-.083.41-.083l4.378-.057-.557.825-3.936-.112c-.097 0-.236-.037-.418-.112a1.958 1.958 0 0 0-.58-.154l-.214.336-3.803-.115c-.098 0-.244-.044-.438-.134-.196-.092-.338-.136-.427-.136l-.853-.027" id="Fill-59" fill="#1A1919"/><path d="M7.883 5.72l.033-.1.886-.014a.79.79 0 0 0 .229-.057c.359-.132.627-.2.806-.2l3.697-.041-.203.334h.366c.09 0 .2-.023.337-.07.327-.11.568-.167.722-.167l3.916-.056-.557.81-3.632-.112-.185-.055-.41-.153a1.229 1.229 0 0 0-.428-.057h-.207l-.227.335-3.364-.1c-.04 0-.282-.074-.728-.227a1.41 1.41 0 0 0-.199-.057l-.852-.014" id="Fill-60" fill="#1A1919"/><path d="M7.743 6.578l.055-.098.817.015c.041 0 .124-.022.253-.061.383-.119.688-.177.915-.177h.207l3.026-.097-.202.349h.657a.821.821 0 0 0 .182-.012l.493-.126c.088-.046.215-.068.386-.068l3.563-.046-.568.823-2.634-.11c-.407-.021-.64-.042-.698-.064l-.457-.19-.175-.064c.008 0-.009-.007-.049-.016l-.78-.016-.213.363-2.974-.098a.969.969 0 0 1-.382-.084l-.385-.153c-.007 0-.077-.013-.208-.041l-.829-.029" id="Fill-61" fill="#1A1919"/><path d="M8.666.56L8.71.446h.925l.047-.03.216-.058a7.678 7.678 0 0 1 .6-.177L12.6.112l-.143.824-1.975-.098a1.364 1.364 0 0 1-.48-.11c-.208-.094-.352-.14-.433-.14L8.666.558" id="Fill-62" fill="#1A1919"/><path d="M7.603 7.451l.031-.096.924-.014c.034 0 .078-.009.133-.028.311-.1.53-.163.654-.184.125-.023.373-.038.747-.049l2.405-.07-.495.825-2.571-.081c-.097 0-.345-.075-.74-.222a.776.776 0 0 0-.235-.054l-.853-.027" id="Fill-63" fill="#1A1919"/><path id="Fill-64" fill="#D8232A" d="M.188 7.659l.438-1.587 5.23-4.496H2.101L2.55 0h5.828l-.551 1.999-4.778 4.073h4.157l-.438 1.587H.188"/></g></g></g></svg>